<svg width="1024" height="1024" viewBox="0 0 1024 1024" fill="none" xmlns="http://www.w3.org/2000/svg">
<path d="M1024 512C1024 794.77 794.77 1024 512 1024C229.23 1024 0 794.77 0 512C0 229.23 229.23 0 512 0C794.77 0 1024 229.23 1024 512Z" fill="#7950F2"/>
<path d="M435.624 567.868C442.46 567.868 447.411 570.696 450.475 576.354C453.775 581.776 455.425 588.022 455.425 595.094C455.425 598.63 455.072 601.695 454.365 604.288C453.657 606.881 452.243 609.356 450.121 611.713C448 613.835 445.171 615.956 441.635 618.078C438.099 619.963 433.503 622.085 427.845 624.442C414.645 630.1 404.272 636.936 396.729 644.951C389.186 652.73 385.414 660.509 385.414 668.288C385.414 673.238 387.064 677.952 390.365 682.431C393.665 686.91 398.851 690.917 405.923 694.453C412.994 697.754 422.07 700.464 433.149 702.586C444.464 704.472 458.018 705.415 473.812 705.415C490.077 705.415 505.517 703.529 520.133 699.757C534.748 695.75 547.477 690.21 558.32 683.138C569.4 676.067 578.122 667.698 584.486 658.033C591.086 648.369 594.387 637.879 594.387 626.564C594.387 618.078 590.851 609.238 583.779 600.045C576.707 590.851 565.51 581.304 550.188 571.404C523.079 553.724 502.453 539.463 488.309 528.619C474.401 517.776 465.797 510.94 462.497 508.111C444.818 492.553 431.617 477.584 422.895 463.205C414.173 448.825 409.812 433.857 409.812 418.299C409.812 403.919 413.23 389.893 420.066 376.221C427.138 362.549 436.567 349.702 448.354 337.68C460.14 325.658 473.694 314.579 489.017 304.442C504.575 294.07 520.722 285.23 537.458 277.923C554.431 270.615 571.403 264.958 588.376 260.951C605.584 256.707 621.849 254.586 637.171 254.586C648.722 254.586 659.33 255.882 668.994 258.475C678.895 261.068 687.499 265.194 694.807 270.851C702.114 276.273 707.772 283.345 711.779 292.067C716.022 300.789 718.144 311.278 718.144 323.536C718.144 341.216 713.076 358.07 702.939 374.1C692.803 390.129 677.363 405.098 656.619 419.006C647.425 425.37 638.939 428.553 631.16 428.553C623.145 428.553 616.781 425.724 612.066 420.067C607.352 414.173 604.994 407.337 604.994 399.558C604.994 392.958 606.88 386.358 610.652 379.757C614.659 373.157 621.024 367.499 629.746 362.785C636.582 359.249 642.593 354.534 647.779 348.641C653.201 342.512 655.912 336.619 655.912 330.962C655.912 325.54 654.026 322.004 650.254 320.354C646.718 318.704 642.357 317.879 637.171 317.879C627.271 317.879 616.427 319.175 604.641 321.768C593.09 324.126 581.422 327.426 569.635 331.669C558.085 335.912 546.77 340.98 535.691 346.873C524.847 352.766 515.182 359.131 506.696 365.967C498.446 372.803 491.727 380.111 486.541 387.89C481.591 395.433 479.116 402.976 479.116 410.52C479.116 415.706 480.177 420.538 482.298 425.017C484.42 429.496 487.484 433.975 491.492 438.453C495.735 442.932 500.803 447.647 506.696 452.597C512.589 457.312 519.425 462.498 527.204 468.155L609.945 529.326C620.552 537.105 629.982 544.766 638.232 552.31C646.718 559.617 653.79 567.043 659.447 574.586C665.105 581.893 669.466 589.319 672.53 596.862C675.595 604.405 677.127 612.42 677.127 620.906C677.127 639.765 672.177 658.269 662.276 676.42C652.611 694.335 638.703 710.365 620.552 724.509C602.637 738.652 580.95 750.085 555.492 758.807C530.269 767.529 502.217 771.89 471.337 771.89C442.578 771.89 418.063 769.533 397.79 764.818C377.753 760.339 361.252 754.21 348.287 746.431C335.322 738.417 325.893 729.341 320 719.205C314.107 708.833 311.16 697.989 311.16 686.674C311.16 674.888 314.107 662.984 320 650.962C326.129 638.704 334.615 627.153 345.458 616.31C356.538 605.466 369.738 595.801 385.061 587.315C400.383 578.829 417.238 572.346 435.624 567.868Z" fill="white"/>
</svg>
